
<svg width="37px" height="59px" viewBox="327 150 37 59" version="1.1" xmlns="http://www.w3.org/2000/svg" xmlns:xlink="http://www.w3.org/1999/xlink">
    <!-- Generator: Sketch 42 (36781) - http://www.bohemiancoding.com/sketch -->
    <desc>Created with Sketch.</desc>
    <defs></defs>
    <path d="M355.606933,161.903 C351.130933,155.598 346.508933,150.781 346.313933,150.578 C346.309933,150.574 346.301933,150.571 346.297933,150.563 C346.262933,150.531 346.227933,150.496 346.192933,150.461 C346.137933,150.418 346.083933,150.375 346.028933,150.336 C346.020933,150.332 346.008933,150.324 346.001933,150.317 C345.903933,150.254 345.805933,150.199 345.700933,150.156 C345.692933,150.153 345.684933,150.149 345.680933,150.145 C345.571933,150.102 345.462933,150.067 345.352933,150.043 C345.344933,150.043 345.340933,150.039 345.333933,150.039 C345.219933,150.016 345.106933,150.004 344.989933,150 L344.973933,150 C344.856933,150 344.743933,150.008 344.630933,150.028 C344.622933,150.028 344.618933,150.031 344.610933,150.031 C344.497933,150.051 344.387933,150.082 344.278933,150.125 C344.270933,150.125 344.266933,150.129 344.258933,150.133 C344.149933,150.172 344.044933,150.227 343.942933,150.289 L343.930933,150.301 C343.829933,150.363 343.735933,150.438 343.645933,150.524 C343.641933,150.528 343.641933,150.528 343.637933,150.528 C343.633933,150.531 343.630933,150.539 343.626933,150.539 C343.590933,150.578 343.555933,150.61 343.524933,150.649 C343.399933,150.793 340.415933,154.238 336.923933,159.117 C336.563933,159.621 336.215933,160.117 335.872933,160.61 C335.864933,160.621 335.860933,160.629 335.856933,160.637 C331.715933,166.602 328.856933,171.867 327.352933,176.305 L327.352933,176.309 C327.352933,176.313 327.348933,176.317 327.348933,176.324 C327.348933,176.324 327.348933,176.328 327.344933,176.328 C327.215933,176.707 326.387933,179.375 327.880933,181.481 C328.559933,182.434 329.954933,183.574 332.747933,183.574 L356.614933,183.574 C357.661933,183.574 358.505933,182.727 358.505933,181.68 C358.505933,180.637 357.661933,179.789 356.614933,179.789 L332.747933,179.789 C331.844933,179.789 331.196933,179.61 330.969933,179.293 C330.653933,178.856 330.809933,177.906 330.930933,177.539 L330.930933,177.535 C331.251933,176.59 331.633933,175.625 332.067933,174.645 C332.817933,175.469 334.118933,176.289 336.333933,176.289 L351.782933,176.289 C352.829933,176.289 353.676933,175.442 353.676933,174.399 C353.676933,173.352 352.829933,172.504 351.782933,172.504 L336.333933,172.504 C335.794933,172.504 335.094933,172.422 334.809933,172.031 C334.403933,171.481 334.512933,170.231 334.727933,169.449 C335.126933,168.754 335.540933,168.059 335.962933,167.375 C336.704933,168.063 337.915933,168.653 339.907933,168.653 L347.419933,168.653 C348.465933,168.653 349.313933,167.805 349.313933,166.762 C349.313933,165.715 348.465933,164.871 347.419933,164.871 L339.907933,164.871 C338.813933,164.871 338.544933,164.613 338.544933,164.613 C338.415933,164.391 338.618933,163.465 339.005933,162.742 C341.372933,159.328 343.649933,156.442 345.028933,154.75 C350.669933,160.985 361.192933,174.512 359.950933,182.332 C358.040933,194.317 345.575933,193.848 345.051933,193.821 L343.423933,193.735 L343.102933,193.68 C342.473933,193.567 341.844933,193.445 341.219933,193.313 C340.598933,193.18 339.981933,193.039 339.372933,192.879 C338.766933,192.715 338.161933,192.555 337.571933,192.36 C337.278933,192.258 336.977933,192.172 336.688933,192.063 C336.399933,191.953 336.106933,191.848 335.821933,191.727 C335.540933,191.606 335.251933,191.485 334.969933,191.356 C334.692933,191.219 334.411933,191.082 334.133933,190.93 C333.864933,190.774 333.579933,190.625 333.313933,190.449 C333.036933,190.278 332.774933,190.09 332.501933,189.895 C332.235933,189.695 331.973933,189.481 331.704933,189.254 C331.442933,189.028 331.176933,188.785 330.903933,188.528 C330.911933,188.715 330.923933,188.903 330.950933,189.086 C330.973933,189.274 331.008933,189.457 331.051933,189.641 C331.137933,190.008 331.251933,190.371 331.403933,190.723 C331.547933,191.078 331.731933,191.418 331.926933,191.75 C332.133933,192.074 332.352933,192.403 332.598933,192.699 C333.090933,193.301 333.653933,193.848 334.266933,194.321 C334.571933,194.559 334.883933,194.785 335.212933,194.985 C335.536933,195.188 335.864933,195.391 336.208933,195.559 C336.887933,195.906 337.583933,196.207 338.301933,196.442 C339.012933,196.684 339.735933,196.875 340.465933,197.016 C341.196933,197.16 341.930933,197.254 342.669933,197.305 C342.801933,197.317 342.930933,197.321 343.059933,197.324 L343.059933,206.43 C343.059933,207.473 343.907933,208.321 344.950933,208.321 C345.997933,208.321 346.844933,207.473 346.844933,206.43 L346.844933,197.555 C348.430933,197.434 350.786933,197.094 353.243933,196.133 C357.301933,194.551 362.403933,190.977 363.684933,182.926 C364.516933,177.707 361.797933,170.633 355.606933,161.903" id="Fill-10" stroke="none" fill="#FFFFFF" fill-rule="evenodd"></path>
</svg>
